<svg width="191" height="151" viewBox="0 0 191 151" fill="none" xmlns="http://www.w3.org/2000/svg">
<path d="M124.6 70.1L85.3 109.2L84.4 107.6L123.9 68.5L161.8 68.1C172.4 68.1 181 59.5 181 48.9V46.7H115L74.6 86.7L73.7 85.1L113.7 45.1L152.5 44.7C163.1 44.7 171.7 36.1 171.7 25.5V23.3H104.9L64 64.2L63.1 62.3L104 21.4H108.4C119 21.4 127.6 12.8 127.6 2.20001V0L95 0.100006L18.5 76.6H0V150.3H148.7V148C148.7 137.4 140.1 128.8 129.5 128.8H96.3L134.3 91.6H171.8C182.4 91.6 191 83 191 72.4V70.2L124.6 70.1Z" fill="#1D1D1B"/>
</svg>
