<svg width="152" height="181" viewBox="0 0 152 181" fill="none" xmlns="http://www.w3.org/2000/svg">
<path d="M151.2 86L151.3 53.4H149.1C138.5 53.4 129.9 62 129.9 72.6V77L88.2 117.9L86.3 117L128 76.1V9.29999H125.8C115.2 9.29999 106.6 17.9 106.6 28.5V67.3L65.8 107.3H65.6L63.8 106.4L104.6 66V0H102.4C91.8 0 83.2 8.60001 83.2 19.2V57.1L43.3 96.6L41.2 95.6L81.2 55.6V24.8H0V27C0 37.6 8.60001 46.2 19.2 46.2H60L21.7 84.5V61.6C21.7 51 13.1 42.4 2.5 42.4H0.299988V180.9H74V162.5L151.2 86Z" fill="#1D1D1B"/>
</svg>
